<svg width="26" height="25" viewBox="0 0 26 25" fill="none" xmlns="http://www.w3.org/2000/svg">
<path fill-rule="evenodd" clip-rule="evenodd" d="M18.417 16.668V18.7513C18.417 18.8965 18.4591 19.0388 18.5385 19.1622C18.6179 19.2857 18.7315 19.3854 18.8666 19.4503L19.9499 19.9711C20.1427 20.0638 20.3659 20.079 20.5704 20.0135C20.7749 19.948 20.9439 19.807 21.0403 19.6216C21.1367 19.4362 21.1525 19.2216 21.0844 19.025C21.0162 18.8284 20.8696 18.6659 20.6768 18.5732L20.042 18.268V16.668C20.042 16.4608 19.9564 16.2621 19.804 16.1155C19.6516 15.969 19.445 15.8867 19.2295 15.8867C19.014 15.8867 18.8073 15.969 18.655 16.1155C18.5026 16.2621 18.417 16.4608 18.417 16.668Z" fill="#505050"/>
<path fill-rule="evenodd" clip-rule="evenodd" d="M24.3747 18.7516C24.3747 16.0204 22.0693 13.8037 19.2288 13.8037C16.3883 13.8037 14.083 16.0204 14.083 18.7516C14.083 21.4829 16.3883 23.6995 19.2288 23.6995C22.0693 23.6995 24.3747 21.4829 24.3747 18.7516ZM22.7497 18.7516C22.7269 19.635 22.3459 20.4747 21.6881 21.0917C21.0303 21.7087 20.1478 22.0541 19.2288 22.0541C18.3099 22.0541 17.4273 21.7087 16.7695 21.0917C16.1117 20.4747 15.7308 19.635 15.708 18.7516C15.7308 17.8683 16.1117 17.0285 16.7695 16.4115C17.4273 15.7945 18.3099 15.4492 19.2288 15.4492C20.1478 15.4492 21.0303 15.7945 21.6881 16.4115C22.3459 17.0285 22.7269 17.8683 22.7497 18.7516Z" fill="#505050"/>
<path fill-rule="evenodd" clip-rule="evenodd" d="M13.8125 22.1361H4.60417C4.2452 22.1355 3.90109 21.9982 3.64726 21.7541C3.39343 21.51 3.25057 21.1791 3.25 20.834V4.16732C3.25057 3.82215 3.39343 3.49128 3.64726 3.24721C3.90109 3.00315 4.2452 2.86579 4.60417 2.86523H12.3099C12.3776 2.86501 12.4429 2.88917 12.493 2.93294L17.7862 7.56003C17.814 7.5845 17.8363 7.61426 17.8516 7.64743C17.8669 7.6806 17.8748 7.71645 17.875 7.75273V12.5006C17.875 12.7078 17.9606 12.9066 18.113 13.0531C18.2653 13.1996 18.472 13.2819 18.6875 13.2819C18.903 13.2819 19.1097 13.1996 19.262 13.0531C19.4144 12.9066 19.5 12.7078 19.5 12.5006V7.75273C19.5 7.49871 19.4448 7.24749 19.3379 7.01518C19.231 6.78288 19.0748 6.57463 18.8793 6.40378L13.5861 1.77669C13.2368 1.47166 12.7818 1.30269 12.3099 1.30273H4.60417C3.81442 1.30273 3.05608 1.60482 2.49708 2.14128C1.93895 2.67901 1.62533 3.4076 1.625 4.16732V20.834C1.625 21.5934 1.93917 22.3225 2.49708 22.86C3.05632 23.3967 3.81406 23.6982 4.60417 23.6986H13.8125C14.028 23.6986 14.2347 23.6163 14.387 23.4697C14.5394 23.3232 14.625 23.1245 14.625 22.9173C14.625 22.7101 14.5394 22.5114 14.387 22.3649C14.2347 22.2184 14.028 22.1361 13.8125 22.1361Z" fill="#505050"/>
<path fill-rule="evenodd" clip-rule="evenodd" d="M13.541 6.51172V2.60547C13.541 2.39827 13.4554 2.19955 13.303 2.05304C13.1507 1.90653 12.944 1.82422 12.7285 1.82422C12.513 1.82422 12.3064 1.90653 12.154 2.05304C12.0016 2.19955 11.916 2.39827 11.916 2.60547V6.77214C11.9166 7.1173 12.0594 7.44817 12.3133 7.69224C12.5671 7.93631 12.9112 8.07367 13.2702 8.07422H18.1452C18.3607 8.07422 18.5673 7.99191 18.7197 7.8454C18.8721 7.69888 18.9577 7.50017 18.9577 7.29297C18.9577 7.08577 18.8721 6.88705 18.7197 6.74054C18.5673 6.59403 18.3607 6.51172 18.1452 6.51172H13.541ZM6.22852 10.1576H10.0202C10.2357 10.1576 10.4423 10.0752 10.5947 9.92873C10.7471 9.78222 10.8327 9.5835 10.8327 9.3763C10.8327 9.1691 10.7471 8.97039 10.5947 8.82388C10.4423 8.67736 10.2357 8.59505 10.0202 8.59505H6.22852C6.01303 8.59505 5.80636 8.67736 5.65399 8.82388C5.50162 8.97039 5.41602 9.1691 5.41602 9.3763C5.41602 9.5835 5.50162 9.78222 5.65399 9.92873C5.80636 10.0752 6.01303 10.1576 6.22852 10.1576ZM6.22852 13.8034H13.2702C13.4857 13.8034 13.6923 13.7211 13.8447 13.5746C13.9971 13.428 14.0827 13.2293 14.0827 13.0221C14.0827 12.8149 13.9971 12.6162 13.8447 12.4697C13.6923 12.3232 13.4857 12.2409 13.2702 12.2409H6.22852C6.01303 12.2409 5.80636 12.3232 5.65399 12.4697C5.50162 12.6162 5.41602 12.8149 5.41602 13.0221C5.41602 13.2293 5.50162 13.428 5.65399 13.5746C5.80636 13.7211 6.01303 13.8034 6.22852 13.8034ZM6.22852 17.4492H10.5619C10.7773 17.4492 10.984 17.3669 11.1364 17.2204C11.2887 17.0739 11.3744 16.8752 11.3744 16.668C11.3744 16.4608 11.2887 16.2621 11.1364 16.1155C10.984 15.969 10.7773 15.8867 10.5619 15.8867H6.22852C6.01303 15.8867 5.80636 15.969 5.65399 16.1155C5.50162 16.2621 5.41602 16.4608 5.41602 16.668C5.41602 16.8752 5.50162 17.0739 5.65399 17.2204C5.80636 17.3669 6.01303 17.4492 6.22852 17.4492Z" fill="#505050"/>
</svg>
