<svg width="25" height="25" viewBox="0 0 25 25" fill="none" xmlns="http://www.w3.org/2000/svg">
<g clip-path="url(#clip0_28_156)">
<path d="M18.9281 14.0495V0.53125H1.98694V24.5313H17.8458V24.531C17.8536 24.531 17.8614 24.5313 17.8693 24.5313C20.7885 24.5313 23.1634 22.1563 23.1634 19.2371C23.1634 16.6805 21.3417 14.5414 18.9281 14.0495ZM3.3987 23.1195V1.94301H17.5164V13.9551C14.7611 14.1373 12.5752 16.4366 12.5752 19.2371C12.5752 20.7696 13.2299 22.1519 14.2741 23.1195H3.3987ZM17.8693 23.1195C15.7285 23.1195 13.9869 21.3778 13.9869 19.2371C13.9869 17.0964 15.7285 15.3548 17.8693 15.3548C20.01 15.3548 21.7516 17.0964 21.7516 19.2371C21.7516 21.3778 20.01 23.1195 17.8693 23.1195Z" fill="white"/>
<path d="M17.3701 19.4875L16.3718 18.4892L15.3736 19.4874L17.3701 21.484L20.3649 18.4892L19.3667 17.491L17.3701 19.4875ZM4.81042 4.76654H6.22219V6.17831H4.81042V4.76654ZM7.63395 4.76654H16.1045V6.17831H7.63395V4.76654ZM4.81042 7.59007H6.22219V9.00184H4.81042V7.59007ZM7.63395 7.59007H16.1045V9.00184H7.63395V7.59007ZM4.81042 10.4136H6.22219V11.8254H4.81042V10.4136ZM7.63395 10.4136H16.1045V11.8254H7.63395V10.4136ZM4.81042 13.2371H6.22219V14.6489H4.81042V13.2371ZM7.63395 13.2371H11.8692V14.6489H7.63395V13.2371Z" fill="white"/>
</g>
<defs>
<clipPath id="clip0_28_156">
<rect width="24" height="24" fill="white" transform="translate(0.575195 0.53125)"/>
</clipPath>
</defs>
</svg>
