<svg width="31" height="26" viewBox="0 0 31 26" fill="none" xmlns="http://www.w3.org/2000/svg">
<path d="M27.0554 5.95008H22.0389V3.6168C22.0379 2.84355 21.7072 2.10224 21.1195 1.55547C20.5317 1.0087 19.7348 0.701122 18.9035 0.700195H12.6328C11.8016 0.701122 11.0047 1.0087 10.4169 1.55547C9.82913 2.10224 9.49848 2.84355 9.49749 3.6168V5.95008H4.48093C3.48338 5.95101 2.52697 6.32005 1.82159 6.97621C1.11622 7.63237 0.719502 8.52206 0.718506 9.45001V22.2831C0.719502 23.211 1.11622 24.1007 1.82159 24.7569C2.52697 25.413 3.48338 25.7821 4.48093 25.783H27.0554C28.053 25.7821 29.0094 25.413 29.7148 24.7569C30.4202 24.1007 30.8169 23.211 30.8179 22.2831V9.45001C30.8169 8.52206 30.4202 7.63237 29.7148 6.97621C29.0094 6.32005 28.053 5.95101 27.0554 5.95008ZM9.49749 23.1581H6.98921V8.57503H9.49749V23.1581ZM19.5306 5.95008H12.0058V3.6168C12.0058 3.46209 12.0718 3.31372 12.1894 3.20433C12.307 3.09494 12.4665 3.03348 12.6328 3.03348H18.9035C19.0698 3.03348 19.2293 3.09494 19.3469 3.20433C19.4645 3.31372 19.5306 3.46209 19.5306 3.6168V5.95008ZM24.5472 23.1581H22.0389V8.57503H24.5472V23.1581Z" fill="#6A686A"/>
</svg>