 <svg width="26" height="26" viewBox="0 0 26 26" fill="none" xmlns="http://www.w3.org/2000/svg">
<path fill-rule="evenodd" clip-rule="evenodd" d="M18.2168 17.618V19.7083C18.2168 19.8539 18.2574 19.9967 18.334 20.1205C18.4106 20.2444 18.5202 20.3445 18.6505 20.4095L19.6956 20.9321C19.8816 21.0251 20.0969 21.0404 20.2942 20.9746C20.4915 20.9089 20.6546 20.7674 20.7475 20.5814C20.8405 20.3955 20.8558 20.1801 20.7901 19.9829C20.7243 19.7856 20.5829 19.6225 20.3969 19.5295L19.7845 19.2233V17.618C19.7845 17.4101 19.7019 17.2108 19.5549 17.0638C19.4079 16.9168 19.2085 16.8342 19.0006 16.8342C18.7927 16.8342 18.5934 16.9168 18.4464 17.0638C18.2994 17.2108 18.2168 17.4101 18.2168 17.618Z" fill="#6A686A"/>
<path fill-rule="evenodd" clip-rule="evenodd" d="M23.964 19.7085C23.964 16.9682 21.74 14.7442 18.9997 14.7442C16.2594 14.7442 14.0354 16.9682 14.0354 19.7085C14.0354 22.4488 16.2594 24.6728 18.9997 24.6728C21.74 24.6728 23.964 22.4488 23.964 19.7085ZM22.3963 19.7085C22.3743 20.5947 22.0068 21.4373 21.3722 22.0563C20.7377 22.6754 19.8862 23.0219 18.9997 23.0219C18.1132 23.0219 17.2618 22.6754 16.6272 22.0563C15.9926 21.4373 15.6251 20.5947 15.6031 19.7085C15.6251 18.8222 15.9926 17.9796 16.6272 17.3606C17.2618 16.7416 18.1132 16.3951 18.9997 16.3951C19.8862 16.3951 20.7377 16.7416 21.3722 17.3606C22.0068 17.9796 22.3743 18.8222 22.3963 19.7085Z" fill="#6A686A"/>
<path fill-rule="evenodd" clip-rule="evenodd" d="M13.7744 23.1045H4.89092C4.54461 23.1039 4.21264 22.9661 3.96777 22.7212C3.72289 22.4764 3.58507 22.1444 3.58452 21.7981V5.07622C3.58507 4.72991 3.72289 4.39795 3.96777 4.15307C4.21264 3.90819 4.54461 3.77038 4.89092 3.76982H12.3248C12.3901 3.7696 12.4531 3.79384 12.5015 3.83776L17.6079 8.48016C17.6348 8.50472 17.6563 8.53458 17.671 8.56786C17.6858 8.60113 17.6934 8.63711 17.6936 8.67351V13.4372C17.6936 13.645 17.7762 13.8444 17.9232 13.9914C18.0702 14.1384 18.2695 14.221 18.4774 14.221C18.6853 14.221 18.8847 14.1384 19.0317 13.9914C19.1787 13.8444 19.2613 13.645 19.2613 13.4372V8.67351C19.2613 8.41864 19.208 8.16659 19.1049 7.93352C19.0017 7.70045 18.851 7.4915 18.6624 7.32008L13.556 2.67768C13.219 2.37164 12.7801 2.20211 12.3248 2.20215H4.89092C4.12903 2.20215 3.39744 2.50523 2.85816 3.04347C2.31972 3.58298 2.01717 4.31399 2.01685 5.07622V21.7981C2.01685 22.56 2.31993 23.2916 2.85816 23.8308C3.39768 24.3693 4.12868 24.6718 4.89092 24.6722H13.7744C13.9823 24.6722 14.1817 24.5896 14.3287 24.4426C14.4757 24.2956 14.5582 24.0962 14.5582 23.8883C14.5582 23.6804 14.4757 23.4811 14.3287 23.3341C14.1817 23.1871 13.9823 23.1045 13.7744 23.1045Z" fill="#6A686A"/>
<path fill-rule="evenodd" clip-rule="evenodd" d="M13.5124 7.42875V3.50956C13.5124 3.30167 13.4299 3.1023 13.2829 2.9553C13.1359 2.80831 12.9365 2.72572 12.7286 2.72572C12.5207 2.72572 12.3214 2.80831 12.1744 2.9553C12.0274 3.1023 11.9448 3.30167 11.9448 3.50956V7.69003C11.9453 8.03634 12.0831 8.3683 12.328 8.61318C12.5729 8.85806 12.9049 8.99587 13.2512 8.99642H17.9542C18.1621 8.99642 18.3615 8.91384 18.5085 8.76684C18.6555 8.61985 18.738 8.42047 18.738 8.21259C18.738 8.0047 18.6555 7.80533 18.5085 7.65833C18.3615 7.51133 18.1621 7.42875 17.9542 7.42875H13.5124ZM6.45791 11.0867H10.1158C10.3237 11.0867 10.5231 11.0041 10.6701 10.8571C10.8171 10.7101 10.8997 10.5107 10.8997 10.3028C10.8997 10.0949 10.8171 9.89556 10.6701 9.74856C10.5231 9.60157 10.3237 9.51898 10.1158 9.51898H6.45791C6.25002 9.51898 6.05065 9.60157 5.90365 9.74856C5.75665 9.89556 5.67407 10.0949 5.67407 10.3028C5.67407 10.5107 5.75665 10.7101 5.90365 10.8571C6.05065 11.0041 6.25002 11.0867 6.45791 11.0867ZM6.45791 14.7446H13.2512C13.4591 14.7446 13.6584 14.662 13.8054 14.515C13.9524 14.368 14.035 14.1686 14.035 13.9607C14.035 13.7528 13.9524 13.5535 13.8054 13.4065C13.6584 13.2595 13.4591 13.1769 13.2512 13.1769H6.45791C6.25002 13.1769 6.05065 13.2595 5.90365 13.4065C5.75665 13.5535 5.67407 13.7528 5.67407 13.9607C5.67407 14.1686 5.75665 14.368 5.90365 14.515C6.05065 14.662 6.25002 14.7446 6.45791 14.7446ZM6.45791 18.4025H10.6384C10.8463 18.4025 11.0456 18.3199 11.1926 18.1729C11.3396 18.0259 11.4222 17.8265 11.4222 17.6186C11.4222 17.4108 11.3396 17.2114 11.1926 17.0644C11.0456 16.9174 10.8463 16.8348 10.6384 16.8348H6.45791C6.25002 16.8348 6.05065 16.9174 5.90365 17.0644C5.75665 17.2114 5.67407 17.4108 5.67407 17.6186C5.67407 17.8265 5.75665 18.0259 5.90365 18.1729C6.05065 18.3199 6.25002 18.4025 6.45791 18.4025Z" fill="#6A686A"/>
</svg>