<svg width="25" height="25" viewBox="0 0 25 25" fill="none" xmlns="http://www.w3.org/2000/svg">
<g clip-path="url(#clip0_28_173)">
<path d="M13.3492 18.3595H10.9856C10.7674 18.3595 10.6219 18.5049 10.6219 18.7231C10.6219 18.9413 10.7674 19.0867 10.9856 19.0867H13.3492C13.5674 19.0867 13.7129 18.9413 13.7129 18.7231C13.7129 18.5413 13.531 18.3595 13.3492 18.3595Z" fill="white"/>
<path d="M22.6583 1.15948H2.00379C1.27652 1.15948 0.694702 1.7413 0.694702 2.43221V19.1595C0.694702 19.8868 1.27652 20.4686 2.00379 20.4686H10.1856C9.96743 22.5413 8.33107 23.3413 8.22198 23.4867C8.07652 23.5958 8.04016 23.7413 8.07652 23.8867C8.11289 24.0322 8.25834 24.1413 8.44016 24.1413H16.2583C16.4038 24.1413 16.5493 24.0322 16.622 23.8867C16.6583 23.7413 16.622 23.5595 16.4765 23.4867C16.3311 23.3413 14.6947 22.5413 14.5129 20.4686H22.6947C23.422 20.4686 24.0038 19.8868 24.0038 19.1595V2.43221C23.9674 1.7413 23.3856 1.15948 22.6583 1.15948ZM2.00379 1.88676H22.6947C23.022 1.88676 23.2765 2.1413 23.2765 2.46858V17.014H1.42198V2.46858C1.42198 2.1413 1.67652 1.88676 2.00379 1.88676ZM15.1674 23.414H9.49471C10.3311 22.6504 10.8402 21.5958 10.9129 20.4686H13.7493C13.8583 21.5958 14.3674 22.6504 15.1674 23.414ZM22.6583 19.7413H2.00379C1.67652 19.7413 1.42198 19.4868 1.42198 19.1595V17.7049H23.2402V19.1595C23.2402 19.4868 22.9856 19.7413 22.6583 19.7413Z" fill="white"/>
<path d="M17.8583 11.4867C20.0401 11.4867 21.7856 9.74129 21.7856 7.55947C21.7856 5.37766 20.0401 3.6322 17.8583 3.6322C15.6765 3.6322 13.931 5.37766 13.931 7.55947C13.931 9.74129 15.6765 11.4867 17.8583 11.4867ZM17.8583 10.7595C17.0946 10.7595 16.4037 10.5049 15.8583 10.0686L17.8946 8.0322L20.3674 9.52311C19.7856 10.2867 18.8765 10.7595 17.8583 10.7595ZM21.0583 7.55947C21.0583 8.0322 20.9492 8.46857 20.7674 8.90493L18.2219 7.37766V4.39584C19.8219 4.54129 21.0583 5.92311 21.0583 7.55947ZM17.4946 4.35947V7.37766L15.3492 9.52311C14.9128 8.97766 14.6583 8.28675 14.6583 7.52311C14.6583 5.92311 15.8946 4.54129 17.4946 4.35947ZM3.2401 15.2322H14.5856C14.8037 15.2322 14.9492 15.0867 14.9492 14.8686C14.9492 14.6504 14.8037 14.5049 14.5856 14.5049H13.8946V11.0504C13.8946 10.8322 13.7492 10.6867 13.531 10.6867H11.8219C11.6037 10.6867 11.4583 10.8322 11.4583 11.0504V14.5049H10.1492V10.8686C10.1492 10.6504 10.0037 10.5049 9.78556 10.5049H8.07646C7.85828 10.5049 7.71283 10.6504 7.71283 10.8686V14.5049H6.40374V6.17766C6.40374 5.95947 6.25828 5.81402 6.0401 5.81402H4.33101C4.11283 5.81402 3.96737 5.95947 3.96737 6.17766V14.5049H3.2401C3.02192 14.5049 2.87646 14.6504 2.87646 14.8686C2.87646 15.0867 3.02192 15.2322 3.2401 15.2322ZM12.1856 11.414H13.1674V14.5049H12.1856V11.414ZM8.40374 11.2322H9.42192V14.5049H8.4401V11.2322H8.40374ZM4.65828 6.54129H5.6401V14.5049H4.65828V6.54129Z" fill="white"/>
</g>
<defs>
<clipPath id="clip0_28_173">
<rect width="24" height="24" fill="white" transform="translate(0.331055 0.650391)"/>
</clipPath>
</defs>
</svg>
