<svg width="25" height="25" viewBox="0 0 25 25" fill="none" xmlns="http://www.w3.org/2000/svg">
<path d="M21.4531 16.4707V4.4707H3.45312V16.4707H21.4531ZM21.4531 2.4707C21.9836 2.4707 22.4923 2.68142 22.8673 3.05649C23.2424 3.43156 23.4531 3.94027 23.4531 4.4707V16.4707C23.4531 17.0011 23.2424 17.5098 22.8673 17.8849C22.4923 18.26 21.9836 18.4707 21.4531 18.4707H14.4531V20.4707H16.4531V22.4707H8.45312V20.4707H10.4531V18.4707H3.45312C2.92269 18.4707 2.41398 18.26 2.03891 17.8849C1.66384 17.5098 1.45313 17.0011 1.45312 16.4707V4.4707C1.45312 3.3607 2.34312 2.4707 3.45312 2.4707H21.4531ZM5.45312 6.4707H14.4531V11.4707H5.45312V6.4707ZM15.4531 6.4707H19.4531V8.4707H15.4531V6.4707ZM19.4531 9.4707V14.4707H15.4531V9.4707H19.4531ZM5.45312 12.4707H9.45312V14.4707H5.45312V12.4707ZM10.4531 12.4707H14.4531V14.4707H10.4531V12.4707Z" fill="white"/>
</svg>
