<svg width="20" height="26" viewBox="0 0 20 26" fill="none" xmlns="http://www.w3.org/2000/svg">
<path d="M10.2623 0.501953C7.76863 0.505271 5.37809 1.49733 3.61484 3.26059C1.85158 5.02384 0.859519 7.41438 0.856201 9.908C0.856201 16.6608 9.61951 25.1184 9.99183 25.475C10.0642 25.5454 10.1613 25.5848 10.2623 25.5848C10.3632 25.5848 10.4603 25.5454 10.5327 25.475C10.905 25.1184 19.6683 16.6608 19.6683 9.908C19.665 7.41438 18.6729 5.02384 16.9097 3.26059C15.1464 1.49733 12.7559 0.505271 10.2623 0.501953ZM10.2623 14.2191C9.4096 14.2191 8.57609 13.9663 7.86713 13.4926C7.15817 13.0188 6.60561 12.3455 6.27931 11.5578C5.95301 10.77 5.86764 9.90322 6.03398 9.06695C6.20033 8.23068 6.61092 7.46251 7.21384 6.85959C7.81676 6.25667 8.58492 5.84608 9.4212 5.67973C10.2575 5.51339 11.1243 5.59876 11.912 5.92506C12.6998 6.25136 13.3731 6.80392 13.8468 7.51288C14.3205 8.22184 14.5734 9.05535 14.5734 9.908C14.5726 11.0512 14.1182 12.1473 13.3099 12.9556C12.5015 13.7639 11.4054 14.2184 10.2623 14.2191Z" fill="#6A686A"/>
</svg>