<svg width="25" height="25" viewBox="0 0 25 25" fill="none" xmlns="http://www.w3.org/2000/svg">
<path d="M20.6893 12.5908C20.6893 12.3268 20.8333 12.1108 21.0733 12.0148L21.8413 11.7028C22.1053 11.5828 22.2733 11.2948 22.2013 11.0068L22.0813 10.4308C22.0333 10.1428 21.7693 9.92683 21.4813 9.92683H20.6413C20.4013 9.92683 20.1613 9.78283 20.0653 9.54283V9.51883C19.9693 9.27883 20.0173 9.03883 20.1853 8.84683L20.7613 8.24683C20.9773 8.03083 21.0013 7.71883 20.8333 7.47883L20.4973 6.97483C20.3293 6.73483 20.0173 6.63883 19.7533 6.75883L18.9853 7.07083C18.7453 7.16683 18.5053 7.11883 18.3133 6.92683L18.2893 6.90283C18.1213 6.73483 18.0493 6.47083 18.1453 6.23083L18.4573 5.46283C18.5773 5.19883 18.4813 4.88683 18.2413 4.71883L17.8093 4.43083C17.5693 4.26283 17.2333 4.31083 17.0413 4.50283L16.4413 5.07883C16.2733 5.24683 16.0093 5.29483 15.7693 5.19883H15.7453C15.5053 5.10283 15.3613 4.88683 15.3613 4.62283V3.78283C15.3613 3.49483 15.1453 3.23083 14.8573 3.18283L14.2813 3.06283C13.9933 3.01483 13.7053 3.15883 13.5853 3.42283L13.2733 4.19083C13.1773 4.43083 12.9373 4.57483 12.6973 4.57483C12.4573 4.57483 12.2173 4.43083 12.1213 4.19083L11.8093 3.42283C11.6893 3.15883 11.4013 2.99083 11.1133 3.06283L10.5373 3.20683C10.2493 3.25483 10.0333 3.51883 10.0333 3.80683V4.64683C10.0333 4.88683 9.88931 5.12683 9.64931 5.19883H9.62531C9.38531 5.29483 9.12131 5.24683 8.95331 5.07883L8.37731 4.50283C8.16131 4.28683 7.84931 4.26283 7.60931 4.43083L7.10531 4.76683C6.86531 4.93483 6.76931 5.24683 6.88931 5.51083L7.20131 6.27883C7.29731 6.51883 7.24931 6.75883 7.05731 6.95083L7.03331 6.97483C6.86531 7.14283 6.60131 7.21483 6.36131 7.11883L5.59331 6.80683C5.32931 6.68683 5.01731 6.78283 4.84931 7.02283L4.53731 7.47883C4.36931 7.71883 4.41731 8.05483 4.60931 8.24683L5.18531 8.82283C5.35331 8.99083 5.40131 9.25483 5.30531 9.49483V9.51883C5.20931 9.75883 4.99331 9.90283 4.72931 9.90283H3.88931C3.60131 9.90283 3.33731 10.1188 3.28931 10.4068L3.16931 10.9828C3.12131 11.2708 3.26531 11.5588 3.52931 11.6788L4.29731 11.9908C4.53731 12.0868 4.68131 12.3268 4.68131 12.5668C4.68131 12.8068 4.53731 13.0468 4.29731 13.1428L3.52931 13.4548C3.26531 13.5748 3.09731 13.8628 3.16931 14.1508L3.28931 14.7268C3.33731 15.0148 3.60131 15.2308 3.88931 15.2308H4.72931C4.96931 15.2308 5.20931 15.3748 5.30531 15.6148V15.6388C5.40131 15.8788 5.35331 16.1428 5.18531 16.3108L4.60931 16.9108C4.39331 17.1268 4.36931 17.4388 4.53731 17.6788L4.87331 18.1828C5.04131 18.4228 5.35331 18.5188 5.61731 18.3988L6.38531 18.0868C6.62531 17.9908 6.86531 18.0388 7.05731 18.2308L7.08131 18.2548C7.24931 18.4228 7.32131 18.6868 7.22531 18.9268L6.91331 19.6948C6.79331 19.9588 6.88931 20.2708 7.12931 20.4388L7.63331 20.7748C7.87331 20.9428 8.20931 20.8948 8.40131 20.7028L9.00131 20.1268C9.16931 19.9588 9.43331 19.9108 9.67331 20.0068H9.69731C9.93731 20.1028 10.0813 20.3188 10.0813 20.5828V21.4228C10.0813 21.7108 10.2973 21.9748 10.5853 22.0228L11.1613 22.1428C11.4493 22.1908 11.7373 22.0468 11.8573 21.7828L12.1693 21.0148C12.2653 20.7748 12.5053 20.6308 12.7453 20.6308C12.9853 20.6308 13.2253 20.7748 13.3213 21.0148L13.6333 21.7828C13.7533 22.0468 14.0413 22.2148 14.3293 22.1428L14.9053 22.0228C15.1933 21.9748 15.4093 21.7108 15.4093 21.4228V20.5828C15.4093 20.3428 15.5533 20.1028 15.7933 20.0068H15.8173C16.0573 19.9108 16.3213 19.9588 16.4893 20.1268L17.0653 20.7028C17.2813 20.9188 17.5933 20.9428 17.8333 20.7748L18.3373 20.4388C18.5773 20.2708 18.6733 19.9588 18.5533 19.6948L18.2413 18.9268C18.1453 18.6868 18.1933 18.4468 18.3853 18.2548L18.4093 18.2308C18.5773 18.0628 18.8413 17.9908 19.0813 18.0868L19.8493 18.3988C20.1133 18.5188 20.4253 18.4228 20.5933 18.1828L20.9293 17.6788C21.0973 17.4388 21.0493 17.1028 20.8573 16.9108L20.2813 16.3108C20.1133 16.1428 20.0653 15.8788 20.1613 15.6388V15.6148C20.2573 15.3748 20.4733 15.2308 20.7373 15.2308H21.5773C21.8653 15.2308 22.1293 15.0148 22.1773 14.7268L22.2973 14.1508C22.3453 13.8628 22.2013 13.5748 21.9373 13.4548L21.1693 13.1428C20.8333 13.0708 20.6893 12.8548 20.6893 12.5908ZM14.2573 6.39883C15.4333 6.68683 16.4653 7.31083 17.2813 8.15083C17.5693 8.43883 17.4973 8.91883 17.1373 9.11083L15.6973 9.95083C15.4813 10.0708 15.1933 10.0468 15.0013 9.87883C14.6893 9.59083 14.3053 9.37483 13.8973 9.23083C13.6573 9.13483 13.4893 8.91883 13.4893 8.65483V6.99883C13.4893 6.59083 13.8733 6.30283 14.2573 6.39883ZM11.9053 6.97483V8.63083C11.9053 8.89483 11.7373 9.11083 11.4973 9.20683C11.0893 9.35083 10.7053 9.56683 10.3933 9.85483C10.2013 10.0228 9.91331 10.0468 9.69731 9.92683L8.25731 9.08683C7.92131 8.89483 7.84931 8.41483 8.11331 8.12683C8.92931 7.28683 9.96131 6.66283 11.1373 6.37483C11.5213 6.30283 11.9053 6.59083 11.9053 6.97483ZM7.44131 14.7028C7.10531 14.8948 6.64931 14.7268 6.55331 14.3428C6.38531 13.7908 6.31331 13.1908 6.31331 12.5908C6.31331 11.9908 6.40931 11.3908 6.55331 10.8388C6.67331 10.4548 7.10531 10.2868 7.44131 10.4788L8.85731 11.2948C9.07331 11.4148 9.21731 11.6788 9.16931 11.9428C9.12131 12.1588 9.09731 12.3748 9.09731 12.5908C9.09731 12.8068 9.12131 13.0228 9.16931 13.2388C9.21731 13.5028 9.09731 13.7428 8.85731 13.8868L7.44131 14.7028ZM11.1373 18.7828C9.96131 18.4948 8.92931 17.8708 8.11331 17.0308C7.82531 16.7428 7.89731 16.2628 8.25731 16.0708L9.69731 15.2308C9.91331 15.1108 10.2013 15.1348 10.3933 15.3028C10.7053 15.5908 11.0893 15.8068 11.4973 15.9508C11.7373 16.0468 11.9053 16.2628 11.9053 16.5268V18.1828C11.9053 18.5908 11.5213 18.8788 11.1373 18.7828ZM12.8893 13.7668C12.0733 13.8868 11.4013 13.1908 11.5213 12.3988C11.5933 11.8948 12.0013 11.4868 12.5053 11.4148C13.3213 11.2948 14.0173 11.9908 13.8733 12.7828C13.8013 13.2868 13.3933 13.6948 12.8893 13.7668ZM13.4893 18.2068V16.5508C13.4893 16.2868 13.6573 16.0708 13.8973 15.9748C14.3053 15.8308 14.6893 15.6148 15.0013 15.3268C15.1933 15.1588 15.4813 15.1348 15.6973 15.2548L17.1373 16.0948C17.4733 16.2868 17.5453 16.7668 17.2813 17.0548C16.4653 17.8948 15.4333 18.5188 14.2573 18.8068C13.8733 18.8788 13.4893 18.5908 13.4893 18.2068ZM17.9533 14.7028L16.5373 13.8868C16.3213 13.7668 16.1773 13.5028 16.2253 13.2388C16.2733 13.0228 16.2973 12.8068 16.2973 12.5908C16.2973 12.3748 16.2733 12.1588 16.2253 11.9428C16.1773 11.6788 16.2973 11.4388 16.5373 11.2948L17.9533 10.4788C18.2893 10.2868 18.7453 10.4548 18.8413 10.8388C19.0093 11.3908 19.0813 11.9908 19.0813 12.5908C19.0813 13.1908 18.9853 13.7908 18.8413 14.3428C18.7453 14.7268 18.3133 14.8948 17.9533 14.7028Z" fill="white"/>
</svg>
